<mxfile host="app.diagrams.net" modified="2024-06-05T00:18:56.641Z" agent="Mozilla/5.0 (iPad; CPU OS 17_5 like Mac OS X) AppleWebKit/605.1.15 (KHTML, like Gecko) CriOS/125.0.6422.80 Mobile/15E148 Safari/604.1" version="24.4.13" etag="87vSw9LVhAR2R_xpBNkw" type="github">
  <diagram name="Page-1" id="TUHgKzT2nU_jVHMRd2mE">
    <mxGraphModel>
      <root>
        <mxCell id="0" />
        <mxCell id="1" parent="0" />
      </root>
    </mxGraphModel>
  </diagram>
</mxfile>
